<svg xmlns="http://www.w3.org/2000/svg" xmlns:xlink="http://www.w3.org/1999/xlink" width="88" height="88" viewBox="0 0 88 88">
  <defs>
    <filter id="Path_628" x="0" y="0" width="88" height="88" filterUnits="userSpaceOnUse">
      <feOffset dy="3" input="SourceAlpha"/>
      <feGaussianBlur stdDeviation="3" result="blur"/>
      <feFlood flood-opacity="0.161"/>
      <feComposite operator="in" in2="blur"/>
      <feComposite in="SourceGraphic"/>
    </filter>
  </defs>
  <g id="Group_660" data-name="Group 660" transform="translate(-1664.954 -268.156)">
    <g transform="matrix(1, 0, 0, 1, 1664.95, 268.16)" filter="url(#Path_628)">
      <path id="Path_628-2" data-name="Path 628" d="M35,0A35,35,0,1,1,0,35,35,35,0,0,1,35,0Z" transform="translate(9 6)" fill="#0b218f"/>
    </g>
    <g id="Icon_material-location-on" data-name="Icon material-location-on" transform="translate(1695.447 294.218)">
      <path id="Icon_material-location-on-2" data-name="Icon material-location-on" d="M21.007,3A13.373,13.373,0,0,0,7.5,16.257c0,9.942,13.507,24.619,13.507,24.619S34.513,26.2,34.513,16.257A13.373,13.373,0,0,0,21.007,3Zm0,17.991a4.735,4.735,0,1,1,4.824-4.734A4.781,4.781,0,0,1,21.007,20.991Z" transform="translate(-7.5 -3)" fill="none" stroke="#fff" stroke-width="2"/>
    </g>
  </g>
</svg>
