<svg xmlns="http://www.w3.org/2000/svg" width="15.86" height="14.997" viewBox="0 0 15.86 14.997">
  <g id="Group_110" data-name="Group 110" transform="translate(-874.864 -747.1)">
    <g id="Group_48" data-name="Group 48" transform="translate(874.864 750.622)">
      <path id="Path_541" data-name="Path 541" d="M880.223,810.456l-.15-1.018a4.651,4.651,0,0,1-.519-.086l-.577.932-1.369-.658.344-.967q-.112-.076-.221-.159t-.2-.165l-.9.57-.942-1.19.751-.737a4.755,4.755,0,0,1-.223-.478l-1.069.081-.275-1.493,1.005-.3a4.793,4.793,0,0,1,.024-.528l-.984-.423.448-1.451,1.031.2a4.806,4.806,0,0,1,.265-.452l-.669-.858,1.091-1.056.793.661a4.694,4.694,0,0,1,.445-.279l-.185-1.08,1.46-.415.384.951a4.768,4.768,0,0,1,.526-.04l.333-1.042,1.487.306-.1,1.023a4.663,4.663,0,0,1,.492.214l.729-.771,1.208.92-.55.907a4.72,4.72,0,0,1,.33.409l1.018-.335.625,1.383-.905.532a4.772,4.772,0,0,1,.1.519l1.055.172-.084,1.515-1.051.054a4.724,4.724,0,0,1-.15.5l.853.654-.79,1.3-.945-.446a4.811,4.811,0,0,1-.364.375l.441,1-1.317.755-.6-.832a4.791,4.791,0,0,1-.5.164l-.073,1.09Zm-.892-1.656.172.046a4.239,4.239,0,0,0,.8.131l.193.013.143.969.656-.026.068-1.013.174-.039a4.2,4.2,0,0,0,.768-.254l.177-.078.575.793.569-.327-.409-.93.135-.116a4.3,4.3,0,0,0,.557-.576l.118-.148.894.422.342-.561-.8-.611.068-.169a4.191,4.191,0,0,0,.228-.773l.036-.184.991-.051.036-.655-.989-.161-.019-.183a4.223,4.223,0,0,0-.157-.8l-.054-.18.855-.5-.27-.6-.953.314-.1-.153a4.265,4.265,0,0,0-.505-.627l-.13-.133.517-.853-.522-.4-.686.725-.163-.09a4.184,4.184,0,0,0-.755-.327l-.184-.059.094-.975-.643-.132-.309.968-.178,0a4.454,4.454,0,0,0-.808.063l-.191.033-.366-.907-.631.18.172,1-.159.08a4.244,4.244,0,0,0-.682.428l-.152.117-.753-.629-.471.456.622.8-.1.146a4.291,4.291,0,0,0-.4.692l-.079.17-.973-.19-.194.627.922.4-.026.181a4.249,4.249,0,0,0-.036.81l.01.188-.95.282.119.646,1-.076.062.173a4.251,4.251,0,0,0,.342.732l.1.161-.708.7.407.515.847-.534.135.124q.146.134.308.258a4.171,4.171,0,0,0,.346.237l.165.1-.328.923.592.284Zm1.257-1.368a2.688,2.688,0,1,1,2.142-1.058A2.675,2.675,0,0,1,880.588,807.433Zm.006-4.9a2.209,2.209,0,1,0,1.337.451A2.207,2.207,0,0,0,880.594,802.536Z" transform="translate(-874.864 -798.981)" fill="#0517ab"/>
    </g>
    <g id="Group_49" data-name="Group 49" transform="translate(885.526 752.904)">
      <path id="Path_542" data-name="Path 542" d="M1082.706,834.505a1.3,1.3,0,1,1,.345-2.557h0a1.3,1.3,0,0,1-.345,2.557Zm0-2.124a.822.822,0,0,0-.219,1.614.821.821,0,0,0,1.011-.573.822.822,0,0,0-.573-1.011h0A.814.814,0,0,0,1082.7,832.381Z" transform="translate(-1081.402 -831.902)" fill="#0b218f"/>
    </g>
    <g id="Group_50" data-name="Group 50" transform="translate(882.925 750.305)">
      <path id="Path_543" data-name="Path 543" d="M1047.038,801.825l-.154-.915c-.087-.016-.173-.036-.256-.059s-.168-.05-.25-.081l-.6.706-1.137-.774.454-.848a3,3,0,0,1-.289-.421l-.942.131-.332-1.335.876-.321a2.987,2.987,0,0,1,.05-.514l-.807-.513.61-1.233.872.321a3.013,3.013,0,0,1,.37-.365l-.3-.9,1.254-.567.476.81a2.8,2.8,0,0,1,.517-.041l.346-.876,1.326.366-.153.93a3.008,3.008,0,0,1,.422.3l.822-.451.786,1.129-.715.621a3.038,3.038,0,0,1,.131.5l.912.17-.107,1.371-.957.028a3,3,0,0,1-.221.466l.588.724-.97.976-.743-.6a3.026,3.026,0,0,1-.464.213l-.044.959Zm-.8-1.633.164.072a2.58,2.58,0,0,0,.718.2l.177.022.141.836.513-.031.04-.864.164-.049a2.536,2.536,0,0,0,.654-.3l.145-.093.672.538.362-.364-.536-.66.1-.147a2.532,2.532,0,0,0,.313-.657l.051-.163.863-.025.04-.512-.833-.155-.019-.177a2.555,2.555,0,0,0-.184-.711l-.067-.16.648-.562-.293-.422-.748.41-.127-.122a2.527,2.527,0,0,0-.6-.424l-.156-.08.139-.844-.5-.137-.314.8-.174-.011a2.537,2.537,0,0,0-.729.059l-.171.039-.433-.736-.468.212.268.814-.14.1a2.536,2.536,0,0,0-.523.516l-.107.142-.8-.294-.228.461.728.463-.04.167a2.531,2.531,0,0,0-.069.725l.009.176-.8.292.124.5.852-.118.077.154a2.571,2.571,0,0,0,.408.594l.115.125-.409.763.425.289Z" transform="translate(-1043.53 -794.031)" fill="#0b218f"/>
    </g>
    <g id="Group_51" data-name="Group 51" transform="translate(881.129 747.1)">
      <path id="Path_544" data-name="Path 544" d="M998.215,752.089,997,751.846l.078-.855a1.689,1.689,0,0,1-.242-.2l-.846.208-.421-1.163.787-.385a1.677,1.677,0,0,1,.055-.3l-.6-.662.823-.924.695.5c.049-.023.1-.043.149-.062s.1-.032.144-.045l.271-.85,1.212.247-.081.852a1.721,1.721,0,0,1,.242.2l.85-.206.417,1.165-.786.381a1.7,1.7,0,0,1-.055.3l.6.658-.82.927-.7-.5c-.048.023-.1.043-.148.062s-.1.032-.145.045Zm-.7-.629.368.073.223-.709.144-.025a1.256,1.256,0,0,0,.211-.055,1.27,1.27,0,0,0,.209-.1l.133-.078.593.421.249-.282-.5-.55.051-.138a1.212,1.212,0,0,0,.077-.43v-.151l.663-.32-.127-.354-.716.173-.1-.117a1.225,1.225,0,0,0-.345-.29l-.135-.076.069-.724-.368-.075-.226.71-.143.025a1.238,1.238,0,0,0-.418.153l-.134.079-.591-.423-.25.28.5.554-.051.137a1.216,1.216,0,0,0-.076.428v.15l-.663.324.128.353.714-.176.1.118a1.2,1.2,0,0,0,.344.289l.135.076Z" transform="translate(-995.571 -747.1)" fill="#07f"/>
    </g>
  </g>
</svg>
