<svg xmlns="http://www.w3.org/2000/svg" width="15" height="15" viewBox="0 0 15 15">
  <g id="Group_2107" data-name="Group 2107" transform="translate(-1619 -397)">
    <circle id="Ellipse_32" data-name="Ellipse 32" cx="7.5" cy="7.5" r="7.5" transform="translate(1619 397)" fill="#0b218f"/>
    <path id="Icon_awesome-phone-alt" data-name="Icon awesome-phone-alt" d="M8.237,5.992,6.382,5.2a.4.4,0,0,0-.464.114l-.821,1A6.138,6.138,0,0,1,2.163,3.38l1-.821A.4.4,0,0,0,3.28,2.1L2.486.241A.4.4,0,0,0,2.03.01L.308.408A.4.4,0,0,0,0,.8,7.683,7.683,0,0,0,7.684,8.479a.4.4,0,0,0,.387-.308l.4-1.722a.4.4,0,0,0-.232-.457Z" transform="translate(1622.261 400.26)" fill="#fff"/>
  </g>
</svg>
