<svg xmlns="http://www.w3.org/2000/svg" width="13.252" height="15.884" viewBox="0 0 13.252 15.884" fill="#0d259e">
  <g id="Group_656" data-name="Group 656" transform="translate(-1500 -352.023)">
    <g id="Group_2098" data-name="Group 2098" transform="translate(1500 352.023)">
      <path id="Path_613" data-name="Path 613" d="M85.45,43.693A34.6,34.6,0,0,1,81,43.44c-1.736-.237-2.091-.534-2.091-.906v-.841c0-2.609,1.787-4.733,3.983-4.733a1.07,1.07,0,0,0,1.022-.744c.023-.073.045-.148.065-.223a.306.306,0,0,1,.433-.2,2.5,2.5,0,0,0,2.247,0,.306.306,0,0,1,.433.2c.02.076.041.15.064.223a1.071,1.071,0,0,0,1.022.744c2.2,0,3.983,2.123,3.983,4.733v.841c0,.372-.37.668-2.175.906A36.417,36.417,0,0,1,85.45,43.693Zm-5.932-1.231c.376.268,2.562.62,5.932.62,3.407,0,5.7-.36,6.1-.625v-.764c0-2.272-1.513-4.121-3.372-4.121A1.679,1.679,0,0,1,86.6,36.485a3.115,3.115,0,0,1-2.135,0,1.679,1.679,0,0,1-1.575,1.087c-1.859,0-3.372,1.849-3.372,4.121Z" transform="translate(-78.907 -27.809)"/>
      <path id="Path_614" data-name="Path 614" d="M91.276,31.336a3.13,3.13,0,0,1-3.127-3.127v-.731a.306.306,0,0,1,.306-.306H94.1a.305.305,0,0,1,.306.306v.731A3.13,3.13,0,0,1,91.276,31.336Zm-2.515-3.552v.426a2.515,2.515,0,1,0,5.03,0v-.426Z" transform="translate(-84.65 -22.47)"/>
      <path id="Path_615" data-name="Path 615" d="M92.795,17.469a.305.305,0,0,1-.306-.306V15.608a.306.306,0,0,1,.611,0v1.556A.306.306,0,0,1,92.795,17.469Z" transform="translate(-87.347 -15.094)"/>
      <path id="Path_616" data-name="Path 616" d="M99.018,17.469a.306.306,0,0,1-.306-.306V15.608a.306.306,0,0,1,.611,0v1.556A.305.305,0,0,1,99.018,17.469Z" transform="translate(-91.214 -15.094)"/>
      <path id="Path_617" data-name="Path 617" d="M85.615,43.693a36.428,36.428,0,0,1-4.533-.252c-1.805-.238-2.175-.535-2.175-.906v-.841c0-2.609,1.787-4.733,3.983-4.733a1.07,1.07,0,0,0,1.022-.744q.035-.11.065-.223a.306.306,0,0,1,.433-.2,2.5,2.5,0,0,0,2.247,0,.306.306,0,0,1,.433.2c.02.076.041.15.064.223a1.071,1.071,0,0,0,1.022.744c2.2,0,3.983,2.123,3.983,4.733v.841c0,.372-.355.669-2.091.906A34.59,34.59,0,0,1,85.615,43.693Zm-6.1-1.236c.394.265,2.69.625,6.1.625,3.37,0,5.556-.351,5.932-.62v-.769c0-2.272-1.513-4.121-3.372-4.121A1.679,1.679,0,0,1,86.6,36.485a3.115,3.115,0,0,1-2.135,0,1.679,1.679,0,0,1-1.575,1.087c-1.859,0-3.372,1.849-3.372,4.121Z" transform="translate(-78.907 -27.809)"/>
      <path id="Path_618" data-name="Path 618" d="M92.846,24.643H86.431a.918.918,0,0,1-.917-.917v-.691a.918.918,0,0,1,.917-.917h6.415a.918.918,0,0,1,.917.917v.691A.918.918,0,0,1,92.846,24.643Zm-6.415-1.913a.306.306,0,0,0-.306.306v.691a.306.306,0,0,0,.306.306h6.415a.306.306,0,0,0,.306-.306v-.691a.306.306,0,0,0-.306-.306Z" transform="translate(-83.012 -19.33)"/>
      <path id="Path_619" data-name="Path 619" d="M93.739,18.18a.307.307,0,0,1-.086-.012.3.3,0,0,0-.086-.015H87.153a.293.293,0,0,0-.085.015.306.306,0,0,1-.387-.349,3.741,3.741,0,0,1,7.359,0,.306.306,0,0,1-.3.361Zm-6.36-.639h5.961a3.129,3.129,0,0,0-5.961,0Z" transform="translate(-83.734 -14.753)"/>
      <path id="Path_620" data-name="Path 620" d="M85.69,51.82a.306.306,0,0,1-.306-.306v-1.66a.714.714,0,0,1,.713-.713h3.46a.306.306,0,1,1,0,.611H86.1a.1.1,0,0,0-.1.1v1.66A.306.306,0,0,1,85.69,51.82Z" transform="translate(-82.932 -36.122)"/>
      <path id="Path_621" data-name="Path 621" d="M85.615,43.693a36.428,36.428,0,0,1-4.533-.252c-1.805-.238-2.175-.535-2.175-.906v-.841c0-2.609,1.787-4.733,3.983-4.733a1.07,1.07,0,0,0,1.022-.744q.035-.11.065-.223a.306.306,0,0,1,.433-.2,2.5,2.5,0,0,0,2.247,0,.306.306,0,0,1,.433.2c.02.076.041.15.064.223a1.071,1.071,0,0,0,1.022.744c2.2,0,3.983,2.123,3.983,4.733v.841c0,.372-.355.669-2.091.906A34.59,34.59,0,0,1,85.615,43.693Zm-6.1-1.236c.394.265,2.69.625,6.1.625,3.37,0,5.556-.351,5.932-.62v-.769c0-2.272-1.513-4.121-3.372-4.121A1.679,1.679,0,0,1,86.6,36.485a3.115,3.115,0,0,1-2.135,0,1.679,1.679,0,0,1-1.575,1.087c-1.859,0-3.372,1.849-3.372,4.121Z" transform="translate(-78.907 -27.809)"/>
      <path id="Path_622" data-name="Path 622" d="M99.774,51.82a.306.306,0,0,1-.306-.306v-1.66a.1.1,0,0,0-.1-.1h-3.46a.306.306,0,1,1,0-.611h3.46a.715.715,0,0,1,.714.713v1.66A.306.306,0,0,1,99.774,51.82Z" transform="translate(-89.28 -36.122)"/>
      <path id="Path_623" data-name="Path 623" d="M97.987,46.11H95.574a.305.305,0,0,1-.216-.089l-1.013-1.013a.306.306,0,0,1,.216-.522.9.9,0,0,0,.9-.9.306.306,0,0,1,.522-.217l2.22,2.219a.306.306,0,0,1-.216.522ZM95.7,45.5h1.548l-1.3-1.3a1.518,1.518,0,0,1-.774.774Z" transform="translate(-88.444 -32.479)"/>
      <path id="Path_624" data-name="Path 624" d="M92.6,43.129a1.507,1.507,0,0,1-1.456-1.9.306.306,0,0,1,.511-.137l.312.313a.295.295,0,0,0,.5-.208.292.292,0,0,0-.086-.208l-.312-.312a.306.306,0,0,1,.137-.511,1.508,1.508,0,1,1,.391,2.964Zm-.8-1.11a.883.883,0,0,0,.169.237.9.9,0,0,0,1.269-1.269.888.888,0,0,0-.236-.169.906.906,0,0,1-1.2,1.2Z" transform="translate(-86.476 -30.512)"/>
      <path id="Path_625" data-name="Path 625" d="M87.256,43.513a.305.305,0,0,1-.306-.306v-3.8a.306.306,0,0,1,.611,0v3.8A.306.306,0,0,1,87.256,43.513Z" transform="translate(-83.905 -29.882)"/>
      <path id="Path_626" data-name="Path 626" d="M104.557,43.513a.305.305,0,0,1-.306-.306v-3.8a.306.306,0,0,1,.611,0v3.8A.305.305,0,0,1,104.557,43.513Z" transform="translate(-94.655 -29.882)"/>
    </g>
  </g>
</svg>
